<svg xmlns="http://www.w3.org/2000/svg" xmlns:xlink="http://www.w3.org/1999/xlink" width="42" height="36" viewBox="0 0 42 36"><defs><path id="4dfba" d="M703 696a1 1 0 0 0-.7.3l-19.29 19.3-19.3-19.3a1 1 0 0 0-.7-.3c-.42 0-.78.25-.94.63a1 1 0 0 0 .23 1.1l20.71 20.7 20.7-20.7a1 1 0 0 0 .24-1.11 1.01 1.01 0 0 0-.95-.62zm0-13a1 1 0 0 0-.7.3l-19.29 19.3-19.3-19.3a1 1 0 0 0-1.64.32 1 1 0 0 0 .23 1.1l20.71 20.71 20.7-20.7a1 1 0 0 0 .24-1.11 1.01 1.01 0 0 0-.95-.62z"/></defs><g><g transform="translate(-662 -683)"><use fill="#fff" xlink:href="#4dfba"/></g></g></svg>