<svg xmlns="http://www.w3.org/2000/svg" xmlns:xlink="http://www.w3.org/1999/xlink" viewBox="0 0 100 96" ><defs><path id="a" d="M387.3 7278.35v6.3h5.86v-6.3zm3.7-38.49c-4.35 0-7.82 1.31-10.22 3.93-2.6 2.6-3.69 6.08-3.91 10.2h5.43c.23-2.38.66-4.55 1.3-5.85 1.31-2.4 3.7-3.7 7.19-3.7 2.6 0 4.77.65 5.86 2.17a7.78 7.78 0 0 1 1.75 5c0 1.52-.45 2.83-1.31 4.14-.43.87-1.09 1.52-1.74 2.17l-2.39 2.39c-2.4 2.4-3.91 4.35-4.57 6.1a20.24 20.24 0 0 0-1.08 6.95h5.43c0-2.61.21-4.35.87-5.44.65-1.3 1.96-2.83 3.91-4.78 2.83-2.6 4.57-4.57 5.44-5.88.86-1.3 1.3-3.04 1.3-5.21 0-3.49-1.3-6.53-3.69-8.7-2.4-2.4-5.66-3.49-9.57-3.49zm0-16.51c25.17 0 45.65 17.54 45.65 39.12 0 21.57-20.48 39.11-45.65 39.11-3.85 0-7.6-.44-11.45-1.34l-2.58-.6-1.71 2a25.64 25.64 0 0 1-14.73 8.3 37.78 37.78 0 0 0 3.54-8.63c.61-2.24.72-3.42.75-4.46l.1-2.42-2.01-1.36c-11.16-7.54-17.56-18.7-17.56-30.6 0-21.58 20.48-39.12 45.65-39.12zm0-4.35c-27.55 0-50 19.3-50 43.47 0 14.02 7.68 26.23 19.48 34.2-.02.47.02 1.24-.6 3.51a36.57 36.57 0 0 1-5.43 11.29l-2.22 3.18h3.89a30.07 30.07 0 0 0 22.44-10.18 54 54 0 0 0 12.44 1.45c27.54 0 50-19.3 50-43.46S418.55 7219 391 7219z"/></defs><use fill="#fff" xlink:href="#a" transform="translate(-341 -7219)"/></svg>
