<svg xmlns="http://www.w3.org/2000/svg" viewBox="0 0 158.704 22.403">
  <defs>
    <style>
      .cls-1 {
        fill: #fff;
        fill-rule: evenodd;
      }
    </style>
  </defs>
  <g id="logo" transform="translate(0 -0.076)">
    <path id="Path_1" data-name="Path 1" class="cls-1" d="M4.2,11.364H9.147a5.726,5.726,0,0,0,3.633-1A3.558,3.558,0,0,0,14.033,7.4,3.438,3.438,0,0,0,12.78,4.5a5.859,5.859,0,0,0-3.633-.967H4.2Zm9.522,9.793L9.93,14.9a7.292,7.292,0,0,1-.783.03H4.2v6.227H0V0H9.147a10.11,10.11,0,0,1,6.578,1.9,6.571,6.571,0,0,1,2.318,5.38,7.737,7.737,0,0,1-1.112,4.232,6.755,6.755,0,0,1-3.242,2.63l4.824,7.012Z" transform="translate(93 1)"/>
    <path id="Path_2" data-name="Path 2" class="cls-1" d="M7.791,4.721A7.2,7.2,0,0,0,5.143,7.4a7.41,7.41,0,0,0-.974,3.755,7.518,7.518,0,0,0,3.637,6.48,6.865,6.865,0,0,0,3.606,1,6.732,6.732,0,0,0,3.561-1,7.241,7.241,0,0,0,2.6-2.711,7.591,7.591,0,0,0,.958-3.769A7.51,7.51,0,0,0,17.575,7.4a7.163,7.163,0,0,0-2.6-2.679,6.819,6.819,0,0,0-3.561-.983A7.035,7.035,0,0,0,7.791,4.721Zm9.327-3.257a10.778,10.778,0,0,1,4.093,4.02A11.04,11.04,0,0,1,22.7,11.155a11.128,11.128,0,0,1-1.491,5.686,10.97,10.97,0,0,1-4.093,4.066,11.368,11.368,0,0,1-5.767,1.5,11.37,11.37,0,0,1-5.766-1.5,10.97,10.97,0,0,1-4.093-4.066A11.128,11.128,0,0,1,0,11.155,11.04,11.04,0,0,1,1.491,5.484a10.777,10.777,0,0,1,4.093-4.02A11.566,11.566,0,0,1,11.351,0,11.564,11.564,0,0,1,17.118,1.464Z" transform="translate(136.002 0.076)"/>
    <path id="Path_3" data-name="Path 3" class="cls-1" d="M9.214,0,0,21.157H4.172l1.86-4.473H16.3l1.861,4.473h4.321L13.385,0Zm1.981,4.322,3.662,8.886H7.473Z" transform="translate(0 1)"/>
    <path id="Path_4" data-name="Path 4" class="cls-1" d="M13.329,0,3.969,10.549V0H0V21.157H3.969v-5.41l3.258-3.658,6.516,9.068h4.769L10.041,8.946,18.009,0Z" transform="translate(48 1)"/>
  </g>
</svg>
